<svg data-v-fde0c5aa="" xmlns="http://www.w3.org/2000/svg" viewBox="0 0 300 300" class="iconAbove"><!----><defs data-v-fde0c5aa=""><!----></defs><rect data-v-fde0c5aa="" fill="transparent" x="0" y="0" width="300px" height="300px" class="logo-background-square"></rect><defs data-v-fde0c5aa=""><!----></defs><g data-v-fde0c5aa="" id="c5893232-928c-4d10-80c6-018d1fa194e1" fill="#000000" transform="matrix(1.5295917551189613,0,0,1.5295917551189613,18.653959262788977,159.01529553828075)"><path d="M6.13 10.28L7.93 10.28L7.93 10.28Q9.01 10.28 9.78 10.37L9.78 10.37L9.78 10.37Q10.55 10.46 11.08 10.63L11.08 10.63L11.08 10.63Q11.61 10.81 11.93 11.07L11.93 11.07L11.93 11.07Q12.24 11.33 12.41 11.66L12.41 11.66L12.41 11.66Q12.58 11.99 12.64 12.40L12.64 12.40L12.64 12.40Q12.69 12.81 12.69 13.29L12.69 13.29L12.69 13.29Q12.69 13.77 12.60 14.19L12.60 14.19L12.60 14.19Q12.52 14.61 12.30 14.96L12.30 14.96L12.30 14.96Q12.08 15.31 11.70 15.58L11.70 15.58L11.70 15.58Q11.33 15.85 10.75 16.04L10.75 16.04L10.75 16.04Q10.17 16.24 9.35 16.33L9.35 16.33L9.35 16.33Q8.53 16.43 7.44 16.43L7.44 16.43L5.69 16.43L5.69 16.43Q4.70 16.43 3.96 16.36L3.96 16.36L3.96 16.36Q3.23 16.28 2.69 16.13L2.69 16.13L2.69 16.13Q2.16 15.98 1.81 15.74L1.81 15.74L1.81 15.74Q1.46 15.50 1.25 15.19L1.25 15.19L1.25 15.19Q1.05 14.87 0.96 14.46L0.96 14.46L0.96 14.46Q0.88 14.05 0.88 13.56L0.88 13.56L2.19 13.56L2.19 13.56Q2.19 14.18 2.37 14.53L2.37 14.53L2.37 14.53Q2.55 14.88 2.96 15.05L2.96 15.05L2.96 15.05Q3.37 15.22 4.04 15.27L4.04 15.27L4.04 15.27Q4.70 15.31 5.69 15.31L5.69 15.31L7.44 15.31L7.44 15.31Q8.59 15.31 9.34 15.20L9.34 15.20L9.34 15.20Q10.10 15.09 10.55 14.85L10.55 14.85L10.55 14.85Q11.01 14.62 11.19 14.23L11.19 14.23L11.19 14.23Q11.38 13.84 11.38 13.29L11.38 13.29L11.38 13.29Q11.38 12.74 11.25 12.37L11.25 12.37L11.25 12.37Q11.12 12.00 10.75 11.78L10.75 11.78L10.75 11.78Q10.38 11.56 9.70 11.47L9.70 11.47L9.70 11.47Q9.02 11.38 7.93 11.38L7.93 11.38L6.13 11.38L6.13 11.38Q4.92 11.38 4.06 11.29L4.06 11.29L4.06 11.29Q3.21 11.20 2.63 11.03L2.63 11.03L2.63 11.03Q2.04 10.86 1.70 10.61L1.70 10.61L1.70 10.61Q1.35 10.36 1.17 10.04L1.17 10.04L1.17 10.04Q0.98 9.72 0.93 9.33L0.93 9.33L0.93 9.33Q0.88 8.93 0.88 8.48L0.88 8.48L0.88 8.48Q0.88 8.00 0.96 7.59L0.96 7.59L0.96 7.59Q1.05 7.18 1.28 6.85L1.28 6.85L1.28 6.85Q1.51 6.51 1.91 6.25L1.91 6.25L1.91 6.25Q2.32 6.00 2.95 5.82L2.95 5.82L2.95 5.82Q3.58 5.65 4.47 5.56L4.47 5.56L4.47 5.56Q5.36 5.47 6.56 5.47L6.56 5.47L7.88 5.47L7.88 5.47Q8.86 5.47 9.60 5.54L9.60 5.54L9.60 5.54Q10.34 5.61 10.87 5.77L10.87 5.77L10.87 5.77Q11.40 5.92 11.75 6.15L11.75 6.15L11.75 6.15Q12.11 6.38 12.31 6.70L12.31 6.70L12.31 6.70Q12.52 7.01 12.61 7.42L12.61 7.42L12.61 7.42Q12.69 7.82 12.69 8.31L12.69 8.31L11.38 8.31L11.38 8.31Q11.38 7.70 11.20 7.35L11.20 7.35L11.20 7.35Q11.02 7 10.61 6.83L10.61 6.83L10.61 6.83Q10.20 6.65 9.53 6.61L9.53 6.61L9.53 6.61Q8.86 6.56 7.88 6.56L7.88 6.56L6.56 6.56L6.56 6.56Q5.25 6.56 4.40 6.65L4.40 6.65L4.40 6.65Q3.55 6.75 3.06 6.97L3.06 6.97L3.06 6.97Q2.57 7.18 2.38 7.55L2.38 7.55L2.38 7.55Q2.19 7.92 2.19 8.48L2.19 8.48L2.19 8.48Q2.19 8.82 2.24 9.08L2.24 9.08L2.24 9.08Q2.28 9.35 2.43 9.55L2.43 9.55L2.43 9.55Q2.58 9.75 2.84 9.89L2.84 9.89L2.84 9.89Q3.11 10.03 3.55 10.12L3.55 10.12L3.55 10.12Q3.99 10.21 4.62 10.24L4.62 10.24L4.62 10.24Q5.25 10.28 6.13 10.28L6.13 10.28ZM14.22 12.26L14.22 12.26L14.22 12.26Q14.22 11.44 14.30 10.81L14.30 10.81L14.30 10.81Q14.38 10.19 14.59 9.72L14.59 9.72L14.59 9.72Q14.80 9.26 15.15 8.94L15.15 8.94L15.15 8.94Q15.50 8.63 16.04 8.44L16.04 8.44L16.04 8.44Q16.58 8.25 17.32 8.17L17.32 8.17L17.32 8.17Q18.05 8.09 19.04 8.09L19.04 8.09L19.04 8.09Q20.35 8.09 21.20 8.25L21.20 8.25L21.20 8.25Q22.05 8.41 22.54 8.74L22.54 8.74L22.54 8.74Q23.03 9.07 23.22 9.58L23.22 9.58L23.22 9.58Q23.41 10.09 23.41 10.79L23.41 10.79L22.10 10.79L22.10 10.79Q22.10 10.54 22.09 10.32L22.09 10.32L22.09 10.32Q22.07 10.10 21.99 9.93L21.99 9.93L21.99 9.93Q21.90 9.75 21.72 9.61L21.72 9.61L21.72 9.61Q21.53 9.47 21.19 9.37L21.19 9.37L21.19 9.37Q20.85 9.28 20.33 9.23L20.33 9.23L20.33 9.23Q19.80 9.18 19.04 9.18L19.04 9.18L19.04 9.18Q18.16 9.18 17.56 9.24L17.56 9.24L17.56 9.24Q16.97 9.30 16.58 9.44L16.58 9.44L16.58 9.44Q16.19 9.58 15.98 9.82L15.98 9.82L15.98 9.82Q15.76 10.06 15.67 10.40L15.67 10.40L15.67 10.40Q15.57 10.74 15.56 11.20L15.56 11.20L15.56 11.20Q15.54 11.66 15.54 12.26L15.54 12.26L15.54 12.26Q15.54 12.85 15.56 13.31L15.56 13.31L15.56 13.31Q15.57 13.76 15.67 14.10L15.67 14.10L15.67 14.10Q15.76 14.44 15.98 14.67L15.98 14.67L15.98 14.67Q16.19 14.90 16.58 15.05L16.58 15.05L16.58 15.05Q16.97 15.19 17.56 15.25L17.56 15.25L17.56 15.25Q18.16 15.31 19.04 15.31L19.04 15.31L19.04 15.31Q19.80 15.31 20.33 15.26L20.33 15.26L20.33 15.26Q20.85 15.20 21.19 15.10L21.19 15.10L21.19 15.10Q21.53 15.00 21.72 14.85L21.72 14.85L21.72 14.85Q21.90 14.70 21.99 14.50L21.99 14.50L21.99 14.50Q22.07 14.31 22.09 14.07L22.09 14.07L22.09 14.07Q22.10 13.84 22.10 13.56L22.10 13.56L23.41 13.56L23.41 13.56Q23.41 14.28 23.22 14.81L23.22 14.81L23.22 14.81Q23.03 15.33 22.54 15.67L22.54 15.67L22.54 15.67Q22.05 16.01 21.20 16.17L21.20 16.17L21.20 16.17Q20.35 16.34 19.04 16.34L19.04 16.34L19.04 16.34Q18.05 16.34 17.32 16.26L17.32 16.26L17.32 16.26Q16.58 16.17 16.04 15.99L16.04 15.99L16.04 15.99Q15.50 15.80 15.15 15.49L15.15 15.49L15.15 15.49Q14.80 15.18 14.59 14.73L14.59 14.73L14.59 14.73Q14.38 14.28 14.30 13.67L14.30 13.67L14.30 13.67Q14.22 13.06 14.22 12.26ZM33.04 10.88L31.94 10.88L31.94 10.88Q31.94 10.38 31.87 10.06L31.87 10.06L31.87 10.06Q31.80 9.73 31.53 9.54L31.53 9.54L31.53 9.54Q31.27 9.34 30.74 9.27L30.74 9.27L30.74 9.27Q30.22 9.19 29.32 9.19L29.32 9.19L29.32 9.19Q28.44 9.19 27.88 9.34L27.88 9.34L27.88 9.34Q27.33 9.50 27.02 9.78L27.02 9.78L27.02 9.78Q26.70 10.06 26.59 10.45L26.59 10.45L26.59 10.45Q26.48 10.83 26.48 11.31L26.48 11.31L26.48 16.19L25.16 16.19L25.16 8.31L26.48 8.31L26.48 9.56L26.48 9.56Q26.54 9.35 26.73 9.10L26.73 9.10L26.73 9.10Q26.91 8.84 27.29 8.62L27.29 8.62L27.29 8.62Q27.67 8.39 28.26 8.24L28.26 8.24L28.26 8.24Q28.86 8.09 29.76 8.09L29.76 8.09L29.76 8.09Q30.78 8.09 31.42 8.27L31.42 8.27L31.42 8.27Q32.07 8.46 32.43 8.81L32.43 8.81L32.43 8.81Q32.79 9.16 32.91 9.68L32.91 9.68L32.91 9.68Q33.04 10.20 33.04 10.88L33.04 10.88ZM38.51 16.34L38.51 16.34L38.51 16.34Q37.19 16.34 36.28 16.16L36.28 16.16L36.28 16.16Q35.36 15.98 34.79 15.53L34.79 15.53L34.79 15.53Q34.21 15.09 33.95 14.34L33.95 14.34L33.95 14.34Q33.69 13.60 33.69 12.47L33.69 12.47L33.69 12.47Q33.69 11.18 33.95 10.33L33.95 10.33L33.95 10.33Q34.21 9.49 34.79 8.99L34.79 8.99L34.79 8.99Q35.36 8.49 36.28 8.29L36.28 8.29L36.28 8.29Q37.19 8.09 38.51 8.09L38.51 8.09L38.51 8.09Q39.44 8.09 40.13 8.23L40.13 8.23L40.13 8.23Q40.82 8.37 41.31 8.63L41.31 8.63L41.31 8.63Q41.79 8.89 42.10 9.26L42.10 9.26L42.10 9.26Q42.40 9.63 42.58 10.03L42.58 10.03L42.58 10.03Q42.75 10.44 42.82 10.99L42.82 10.99L42.82 10.99Q42.88 11.53 42.88 12.14L42.88 12.14L42.77 12.58L35.01 12.58L35.01 12.58Q35.01 13.48 35.18 14.06L35.18 14.06L35.18 14.06Q35.36 14.64 35.77 14.90L35.77 14.90L35.77 14.90Q36.18 15.17 36.85 15.24L36.85 15.24L36.85 15.24Q37.52 15.31 38.51 15.31L38.51 15.31L38.51 15.31Q39.41 15.31 40.00 15.26L40.00 15.26L40.00 15.26Q40.59 15.21 40.94 15.07L40.94 15.07L40.94 15.07Q41.29 14.92 41.43 14.67L41.43 14.67L41.43 14.67Q41.57 14.41 41.57 14L41.57 14L42.88 14L42.88 14Q42.88 14.64 42.66 15.08L42.66 15.08L42.66 15.08Q42.44 15.53 41.92 15.81L41.92 15.81L41.92 15.81Q41.41 16.08 40.57 16.21L40.57 16.21L40.57 16.21Q39.74 16.34 38.51 16.34ZM38.51 9.19L38.51 9.19L38.51 9.19Q37.85 9.19 37.33 9.21L37.33 9.21L37.33 9.21Q36.82 9.24 36.43 9.33L36.43 9.33L36.43 9.33Q36.05 9.43 35.77 9.60L35.77 9.60L35.77 9.60Q35.50 9.78 35.33 10.01L35.33 10.01L35.33 10.01Q35.16 10.25 35.09 10.67L35.09 10.67L35.09 10.67Q35.01 11.10 35.01 11.70L35.01 11.70L41.57 11.70L41.57 11.70Q41.57 10.90 41.40 10.45L41.40 10.45L41.40 10.45Q41.23 9.99 40.86 9.70L40.86 9.70L40.86 9.70Q40.49 9.41 39.91 9.30L39.91 9.30L39.91 9.30Q39.33 9.19 38.51 9.19ZM49.23 16.34L49.23 16.34L49.23 16.34Q47.91 16.34 47.00 16.16L47.00 16.16L47.00 16.16Q46.08 15.98 45.51 15.53L45.51 15.53L45.51 15.53Q44.93 15.09 44.67 14.34L44.67 14.34L44.67 14.34Q44.41 13.60 44.41 12.47L44.41 12.47L44.41 12.47Q44.41 11.18 44.67 10.33L44.67 10.33L44.67 10.33Q44.93 9.49 45.51 8.99L45.51 8.99L45.51 8.99Q46.08 8.49 47.00 8.29L47.00 8.29L47.00 8.29Q47.91 8.09 49.23 8.09L49.23 8.09L49.23 8.09Q50.16 8.09 50.85 8.23L50.85 8.23L50.85 8.23Q51.54 8.37 52.02 8.63L52.02 8.63L52.02 8.63Q52.51 8.89 52.82 9.26L52.82 9.26L52.82 9.26Q53.12 9.63 53.30 10.03L53.30 10.03L53.30 10.03Q53.47 10.44 53.54 10.99L53.54 10.99L53.54 10.99Q53.60 11.53 53.60 12.14L53.60 12.14L53.49 12.58L45.73 12.58L45.73 12.58Q45.73 13.48 45.90 14.06L45.90 14.06L45.90 14.06Q46.08 14.64 46.49 14.90L46.49 14.90L46.49 14.90Q46.90 15.17 47.57 15.24L47.57 15.24L47.57 15.24Q48.24 15.31 49.23 15.31L49.23 15.31L49.23 15.31Q50.13 15.31 50.72 15.26L50.72 15.26L50.72 15.26Q51.31 15.21 51.66 15.07L51.66 15.07L51.66 15.07Q52.01 14.92 52.15 14.67L52.15 14.67L52.15 14.67Q52.29 14.41 52.29 14L52.29 14L53.60 14L53.60 14Q53.60 14.64 53.38 15.08L53.38 15.08L53.38 15.08Q53.16 15.53 52.64 15.81L52.64 15.81L52.64 15.81Q52.13 16.08 51.29 16.21L51.29 16.21L51.29 16.21Q50.46 16.34 49.23 16.34ZM49.23 9.19L49.23 9.19L49.23 9.19Q48.57 9.19 48.05 9.21L48.05 9.21L48.05 9.21Q47.54 9.24 47.15 9.33L47.15 9.33L47.15 9.33Q46.76 9.43 46.49 9.60L46.49 9.60L46.49 9.60Q46.22 9.78 46.05 10.01L46.05 10.01L46.05 10.01Q45.88 10.25 45.80 10.67L45.80 10.67L45.80 10.67Q45.73 11.10 45.73 11.70L45.73 11.70L52.29 11.70L52.29 11.70Q52.29 10.90 52.12 10.45L52.12 10.45L52.12 10.45Q51.95 9.99 51.58 9.70L51.58 9.70L51.58 9.70Q51.21 9.41 50.63 9.30L50.63 9.30L50.63 9.30Q50.05 9.19 49.23 9.19ZM64.54 16.19L63.23 16.19L63.23 11.81L63.23 11.81Q63.23 11.08 63.12 10.58L63.12 10.58L63.12 10.58Q63.01 10.08 62.68 9.77L62.68 9.77L62.68 9.77Q62.35 9.46 61.75 9.32L61.75 9.32L61.75 9.32Q61.15 9.19 60.16 9.19L60.16 9.19L60.16 9.19Q59.10 9.19 58.42 9.34L58.42 9.34L58.42 9.34Q57.74 9.50 57.35 9.79L57.35 9.79L57.35 9.79Q56.96 10.08 56.81 10.48L56.81 10.48L56.81 10.48Q56.66 10.88 56.66 11.38L56.66 11.38L56.66 16.19L55.35 16.19L55.35 8.31L56.66 8.31L56.66 9.63L56.66 9.63Q56.81 9.29 57.07 9.05L57.07 9.05L57.07 9.05Q57.34 8.80 57.67 8.63L57.67 8.63L57.67 8.63Q58.01 8.46 58.40 8.36L58.40 8.36L58.40 8.36Q58.79 8.25 59.18 8.19L59.18 8.19L59.18 8.19Q59.57 8.13 59.93 8.11L59.93 8.11L59.93 8.11Q60.30 8.09 60.60 8.09L60.60 8.09L60.60 8.09Q61.48 8.09 62.11 8.20L62.11 8.20L62.11 8.20Q62.74 8.31 63.18 8.52L63.18 8.52L63.18 8.52Q63.62 8.74 63.89 9.05L63.89 9.05L63.89 9.05Q64.16 9.37 64.30 9.78L64.30 9.78L64.30 9.78Q64.45 10.19 64.50 10.70L64.50 10.70L64.50 10.70Q64.54 11.21 64.54 11.81L64.54 11.81L64.54 16.19ZM81.83 14.22L81.83 16.19L80.51 16.19L80.51 14.22L80.51 14.22Q80.51 13.74 80.50 13.40L80.50 13.40L80.50 13.40Q80.48 13.05 80.38 12.80L80.38 12.80L80.38 12.80Q80.28 12.56 80.07 12.41L80.07 12.41L80.07 12.41Q79.86 12.26 79.47 12.17L79.47 12.17L79.47 12.17Q79.08 12.09 78.48 12.06L78.48 12.06L78.48 12.06Q77.88 12.03 77.01 12.03L77.01 12.03L71.11 12.03L71.11 16.19L69.79 16.19L69.79 5.69L77.23 5.69L77.23 5.69Q78.43 5.69 79.25 5.77L79.25 5.77L79.25 5.77Q80.08 5.86 80.61 6.03L80.61 6.03L80.61 6.03Q81.15 6.20 81.44 6.45L81.44 6.45L81.44 6.45Q81.73 6.71 81.86 7.05L81.86 7.05L81.86 7.05Q82.00 7.39 82.02 7.81L82.02 7.81L82.02 7.81Q82.04 8.24 82.04 8.75L82.04 8.75L82.04 8.75Q82.04 9.41 81.95 9.90L81.95 9.90L81.95 9.90Q81.86 10.40 81.64 10.75L81.64 10.75L81.64 10.75Q81.42 11.09 81.06 11.30L81.06 11.30L81.06 11.30Q80.70 11.51 80.15 11.59L80.15 11.59L80.15 11.59Q80.70 11.68 81.03 11.88L81.03 11.88L81.03 11.88Q81.35 12.09 81.53 12.41L81.53 12.41L81.53 12.41Q81.71 12.74 81.77 13.19L81.77 13.19L81.77 13.19Q81.83 13.64 81.83 14.22L81.83 14.22ZM71.11 6.78L71.11 10.94L77.23 10.94L77.23 10.94Q78.10 10.94 78.70 10.91L78.70 10.91L78.70 10.91Q79.30 10.88 79.69 10.79L79.69 10.79L79.69 10.79Q80.08 10.71 80.29 10.56L80.29 10.56L80.29 10.56Q80.50 10.41 80.60 10.17L80.60 10.17L80.60 10.17Q80.70 9.92 80.72 9.57L80.72 9.57L80.72 9.57Q80.73 9.23 80.73 8.75L80.73 8.75L80.73 8.75Q80.73 8.31 80.72 7.98L80.72 7.98L80.72 7.98Q80.70 7.66 80.60 7.44L80.60 7.44L80.60 7.44Q80.50 7.23 80.29 7.10L80.29 7.10L80.29 7.10Q80.08 6.97 79.69 6.89L79.69 6.89L79.69 6.89Q79.30 6.82 78.70 6.80L78.70 6.80L78.70 6.80Q78.10 6.78 77.23 6.78L77.23 6.78L71.11 6.78ZM88.39 16.34L88.39 16.34L88.39 16.34Q87.08 16.34 86.16 16.16L86.16 16.16L86.16 16.16Q85.24 15.98 84.67 15.53L84.67 15.53L84.67 15.53Q84.10 15.09 83.84 14.34L83.84 14.34L83.84 14.34Q83.58 13.60 83.58 12.47L83.58 12.47L83.58 12.47Q83.58 11.18 83.84 10.33L83.84 10.33L83.84 10.33Q84.10 9.49 84.67 8.99L84.67 8.99L84.67 8.99Q85.24 8.49 86.16 8.29L86.16 8.29L86.16 8.29Q87.08 8.09 88.39 8.09L88.39 8.09L88.39 8.09Q89.33 8.09 90.01 8.23L90.01 8.23L90.01 8.23Q90.70 8.37 91.19 8.63L91.19 8.63L91.19 8.63Q91.68 8.89 91.98 9.26L91.98 9.26L91.98 9.26Q92.29 9.63 92.46 10.03L92.46 10.03L92.46 10.03Q92.63 10.44 92.70 10.99L92.70 10.99L92.70 10.99Q92.76 11.53 92.76 12.14L92.76 12.14L92.65 12.58L84.89 12.58L84.89 12.58Q84.89 13.48 85.07 14.06L85.07 14.06L85.07 14.06Q85.24 14.64 85.65 14.90L85.65 14.90L85.65 14.90Q86.06 15.17 86.73 15.24L86.73 15.24L86.73 15.24Q87.40 15.31 88.39 15.31L88.39 15.31L88.39 15.31Q89.29 15.31 89.88 15.26L89.88 15.26L89.88 15.26Q90.47 15.21 90.82 15.07L90.82 15.07L90.82 15.07Q91.17 14.92 91.31 14.67L91.31 14.67L91.31 14.67Q91.45 14.41 91.45 14L91.45 14L92.76 14L92.76 14Q92.76 14.64 92.54 15.08L92.54 15.08L92.54 15.08Q92.32 15.53 91.81 15.81L91.81 15.81L91.81 15.81Q91.29 16.08 90.46 16.21L90.46 16.21L90.46 16.21Q89.62 16.34 88.39 16.34ZM88.39 9.19L88.39 9.19L88.39 9.19Q87.73 9.19 87.22 9.21L87.22 9.21L87.22 9.21Q86.70 9.24 86.31 9.33L86.31 9.33L86.31 9.33Q85.93 9.43 85.65 9.60L85.65 9.60L85.65 9.60Q85.38 9.78 85.21 10.01L85.21 10.01L85.21 10.01Q85.05 10.25 84.97 10.67L84.97 10.67L84.97 10.67Q84.89 11.10 84.89 11.70L84.89 11.70L91.45 11.70L91.45 11.70Q91.45 10.90 91.28 10.45L91.28 10.45L91.28 10.45Q91.11 9.99 90.74 9.70L90.74 9.70L90.74 9.70Q90.37 9.41 89.79 9.30L89.79 9.30L89.79 9.30Q89.21 9.19 88.39 9.19ZM94.29 12.26L94.29 12.26L94.29 12.26Q94.29 11.44 94.38 10.81L94.38 10.81L94.38 10.81Q94.46 10.19 94.67 9.72L94.67 9.72L94.67 9.72Q94.88 9.26 95.23 8.94L95.23 8.94L95.23 8.94Q95.58 8.63 96.12 8.44L96.12 8.44L96.12 8.44Q96.65 8.25 97.39 8.17L97.39 8.17L97.39 8.17Q98.13 8.09 99.11 8.09L99.11 8.09L99.11 8.09Q100.43 8.09 101.27 8.25L101.27 8.25L101.27 8.25Q102.12 8.41 102.61 8.74L102.61 8.74L102.61 8.74Q103.11 9.07 103.30 9.58L103.30 9.58L103.30 9.58Q103.49 10.09 103.49 10.79L103.49 10.79L102.18 10.79L102.18 10.79Q102.18 10.54 102.16 10.32L102.16 10.32L102.16 10.32Q102.15 10.10 102.06 9.93L102.06 9.93L102.06 9.93Q101.98 9.75 101.79 9.61L101.79 9.61L101.79 9.61Q101.61 9.47 101.27 9.37L101.27 9.37L101.27 9.37Q100.93 9.28 100.40 9.23L100.40 9.23L100.40 9.23Q99.88 9.18 99.11 9.18L99.11 9.18L99.11 9.18Q98.24 9.18 97.64 9.24L97.64 9.24L97.64 9.24Q97.04 9.30 96.65 9.44L96.65 9.44L96.65 9.44Q96.26 9.58 96.05 9.82L96.05 9.82L96.05 9.82Q95.84 10.06 95.74 10.40L95.74 10.40L95.74 10.40Q95.65 10.74 95.63 11.20L95.63 11.20L95.63 11.20Q95.61 11.66 95.61 12.26L95.61 12.26L95.61 12.26Q95.61 12.85 95.63 13.31L95.63 13.31L95.63 13.31Q95.65 13.76 95.74 14.10L95.74 14.10L95.74 14.10Q95.84 14.44 96.05 14.67L96.05 14.67L96.05 14.67Q96.26 14.90 96.65 15.05L96.65 15.05L96.65 15.05Q97.04 15.19 97.64 15.25L97.64 15.25L97.64 15.25Q98.24 15.31 99.11 15.31L99.11 15.31L99.11 15.31Q99.88 15.31 100.40 15.26L100.40 15.26L100.40 15.26Q100.93 15.20 101.27 15.10L101.27 15.10L101.27 15.10Q101.61 15.00 101.79 14.85L101.79 14.85L101.79 14.85Q101.98 14.70 102.06 14.50L102.06 14.50L102.06 14.50Q102.15 14.31 102.16 14.07L102.16 14.07L102.16 14.07Q102.18 13.84 102.18 13.56L102.18 13.56L103.49 13.56L103.49 13.56Q103.49 14.28 103.30 14.81L103.30 14.81L103.30 14.81Q103.11 15.33 102.61 15.67L102.61 15.67L102.61 15.67Q102.12 16.01 101.27 16.17L101.27 16.17L101.27 16.17Q100.43 16.34 99.11 16.34L99.11 16.34L99.11 16.34Q98.13 16.34 97.39 16.26L97.39 16.26L97.39 16.26Q96.65 16.17 96.12 15.99L96.12 15.99L96.12 15.99Q95.58 15.80 95.23 15.49L95.23 15.49L95.23 15.49Q94.88 15.18 94.67 14.73L94.67 14.73L94.67 14.73Q94.46 14.28 94.38 13.67L94.38 13.67L94.38 13.67Q94.29 13.06 94.29 12.26ZM105.02 12.20L105.02 12.20L105.02 12.20Q105.02 10.99 105.28 10.19L105.28 10.19L105.28 10.19Q105.54 9.40 106.11 8.93L106.11 8.93L106.11 8.93Q106.69 8.47 107.60 8.28L107.60 8.28L107.60 8.28Q108.52 8.09 109.83 8.09L109.83 8.09L109.83 8.09Q111.15 8.09 112.06 8.28L112.06 8.28L112.06 8.28Q112.98 8.47 113.55 8.93L113.55 8.93L113.55 8.93Q114.13 9.40 114.39 10.19L114.39 10.19L114.39 10.19Q114.65 10.99 114.65 12.20L114.65 12.20L114.65 12.20Q114.65 13.41 114.39 14.21L114.39 14.21L114.39 14.21Q114.13 15.00 113.55 15.48L113.55 15.48L113.55 15.48Q112.98 15.95 112.06 16.14L112.06 16.14L112.06 16.14Q111.15 16.34 109.83 16.34L109.83 16.34L109.83 16.34Q108.52 16.34 107.60 16.14L107.60 16.14L107.60 16.14Q106.69 15.95 106.11 15.48L106.11 15.48L106.11 15.48Q105.54 15.00 105.28 14.21L105.28 14.21L105.28 14.21Q105.02 13.41 105.02 12.20ZM106.33 12.20L106.33 12.20L106.33 12.20Q106.33 12.85 106.38 13.34L106.38 13.34L106.38 13.34Q106.43 13.82 106.56 14.17L106.56 14.17L106.56 14.17Q106.70 14.52 106.93 14.74L106.93 14.74L106.93 14.74Q107.17 14.96 107.56 15.09L107.56 15.09L107.56 15.09Q107.95 15.22 108.51 15.26L108.51 15.26L108.51 15.26Q109.07 15.31 109.83 15.31L109.83 15.31L109.83 15.31Q110.49 15.31 111.01 15.28L111.01 15.28L111.01 15.28Q111.52 15.25 111.91 15.14L111.91 15.14L111.91 15.14Q112.29 15.03 112.57 14.83L112.57 14.83L112.57 14.83Q112.84 14.63 113.01 14.28L113.01 14.28L113.01 14.28Q113.18 13.93 113.25 13.42L113.25 13.42L113.25 13.42Q113.33 12.91 113.33 12.20L113.33 12.20L113.33 12.20Q113.33 11.49 113.25 11.00L113.25 11.00L113.25 11.00Q113.18 10.50 113.01 10.17L113.01 10.17L113.01 10.17Q112.84 9.83 112.57 9.64L112.57 9.64L112.57 9.64Q112.29 9.44 111.91 9.34L111.91 9.34L111.91 9.34Q111.52 9.24 111.01 9.21L111.01 9.21L111.01 9.21Q110.49 9.19 109.83 9.19L109.83 9.19L109.83 9.19Q109.18 9.19 108.66 9.21L108.66 9.21L108.66 9.21Q108.14 9.24 107.76 9.34L107.76 9.34L107.76 9.34Q107.37 9.44 107.10 9.64L107.10 9.64L107.10 9.64Q106.83 9.83 106.66 10.17L106.66 10.17L106.66 10.17Q106.49 10.50 106.41 11.00L106.41 11.00L106.41 11.00Q106.33 11.49 106.33 12.20ZM124.05 10.88L122.96 10.88L122.96 10.88Q122.96 10.38 122.89 10.06L122.89 10.06L122.89 10.06Q122.81 9.73 122.55 9.54L122.55 9.54L122.55 9.54Q122.28 9.34 121.76 9.27L121.76 9.27L121.76 9.27Q121.24 9.19 120.33 9.19L120.33 9.19L120.33 9.19Q119.45 9.19 118.90 9.34L118.90 9.34L118.90 9.34Q118.34 9.50 118.03 9.78L118.03 9.78L118.03 9.78Q117.71 10.06 117.60 10.45L117.60 10.45L117.60 10.45Q117.49 10.83 117.49 11.31L117.49 11.31L117.49 16.19L116.18 16.19L116.18 8.31L117.49 8.31L117.49 9.56L117.49 9.56Q117.56 9.35 117.74 9.10L117.74 9.10L117.74 9.10Q117.93 8.84 118.30 8.62L118.30 8.62L118.30 8.62Q118.68 8.39 119.28 8.24L119.28 8.24L119.28 8.24Q119.88 8.09 120.77 8.09L120.77 8.09L120.77 8.09Q121.80 8.09 122.44 8.27L122.44 8.27L122.44 8.27Q123.08 8.46 123.44 8.81L123.44 8.81L123.44 8.81Q123.80 9.16 123.93 9.68L123.93 9.68L123.93 9.68Q124.05 10.20 124.05 10.88L124.05 10.88ZM129.52 16.34L129.52 16.34L129.52 16.34Q128.21 16.34 127.29 16.15L127.29 16.15L127.29 16.15Q126.38 15.96 125.80 15.49L125.80 15.49L125.80 15.49Q125.23 15.03 124.97 14.24L124.97 14.24L124.97 14.24Q124.71 13.45 124.71 12.26L124.71 12.26L124.71 12.26Q124.71 11.03 124.97 10.23L124.97 10.23L124.97 10.23Q125.23 9.42 125.80 8.95L125.80 8.95L125.80 8.95Q126.38 8.48 127.29 8.29L127.29 8.29L127.29 8.29Q128.21 8.09 129.52 8.09L129.52 8.09L129.52 8.09Q130.45 8.09 131.08 8.19L131.08 8.19L131.08 8.19Q131.71 8.29 132.11 8.43L132.11 8.43L132.11 8.43Q132.51 8.57 132.72 8.74L132.72 8.74L132.72 8.74Q132.92 8.91 133.02 9.05L133.02 9.05L133.02 5.69L134.33 5.69L134.33 16.19L133.02 16.19L133.02 15.02L133.02 15.02Q133.02 15.02 132.69 15.41L132.69 15.41L132.69 15.41Q132.41 15.69 132.06 15.86L132.06 15.86L132.06 15.86Q131.71 16.03 131.08 16.18L131.08 16.18L131.08 16.18Q130.45 16.34 129.52 16.34ZM129.52 15.31L129.52 15.31L129.52 15.31Q130.18 15.31 130.69 15.28L130.69 15.28L130.69 15.28Q131.20 15.25 131.59 15.15L131.59 15.15L131.59 15.15Q131.98 15.05 132.25 14.84L132.25 14.84L132.25 14.84Q132.52 14.64 132.69 14.31L132.69 14.31L132.69 14.31Q132.86 13.97 132.94 13.48L132.94 13.48L132.94 13.48Q133.02 12.98 133.02 12.28L133.02 12.28L133.02 12.28Q133.02 11.56 132.94 11.05L132.94 11.05L132.94 11.05Q132.86 10.54 132.69 10.20L132.69 10.20L132.69 10.20Q132.52 9.85 132.25 9.65L132.25 9.65L132.25 9.65Q131.98 9.45 131.59 9.35L131.59 9.35L131.59 9.35Q131.20 9.24 130.69 9.21L130.69 9.21L130.69 9.21Q130.18 9.19 129.52 9.19L129.52 9.19L129.52 9.19Q128.75 9.19 128.20 9.24L128.20 9.24L128.20 9.24Q127.64 9.28 127.25 9.41L127.25 9.41L127.25 9.41Q126.86 9.53 126.62 9.75L126.62 9.75L126.62 9.75Q126.38 9.97 126.24 10.31L126.24 10.31L126.24 10.31Q126.11 10.65 126.06 11.13L126.06 11.13L126.06 11.13Q126.02 11.61 126.02 12.26L126.02 12.26L126.02 12.26Q126.02 12.91 126.06 13.38L126.06 13.38L126.06 13.38Q126.11 13.86 126.24 14.19L126.24 14.19L126.24 14.19Q126.38 14.53 126.62 14.75L126.62 14.75L126.62 14.75Q126.86 14.97 127.25 15.09L127.25 15.09L127.25 15.09Q127.64 15.22 128.20 15.26L128.20 15.26L128.20 15.26Q128.75 15.31 129.52 15.31ZM139.58 16.19L139.58 5.69L147.47 5.69L147.47 5.69Q148.45 5.69 149.12 5.77L149.12 5.77L149.12 5.77Q149.80 5.86 150.23 6.03L150.23 6.03L150.23 6.03Q150.67 6.20 150.91 6.45L150.91 6.45L150.91 6.45Q151.14 6.71 151.25 7.05L151.25 7.05L151.25 7.05Q151.36 7.39 151.38 7.81L151.38 7.81L151.38 7.81Q151.40 8.24 151.40 8.75L151.40 8.75L151.40 8.75Q151.40 9.28 151.37 9.73L151.37 9.73L151.37 9.73Q151.35 10.19 151.21 10.55L151.21 10.55L151.21 10.55Q151.08 10.92 150.79 11.19L150.79 11.19L150.79 11.19Q150.50 11.47 149.96 11.66L149.96 11.66L149.96 11.66Q149.43 11.84 148.60 11.94L148.60 11.94L148.60 11.94Q147.78 12.03 146.58 12.03L146.58 12.03L140.90 12.03L140.90 16.19L139.58 16.19ZM140.90 6.78L140.90 10.94L146.58 10.94L146.58 10.94Q147.45 10.94 148.05 10.91L148.05 10.91L148.05 10.91Q148.65 10.88 149.04 10.79L149.04 10.79L149.04 10.79Q149.43 10.71 149.64 10.56L149.64 10.56L149.64 10.56Q149.85 10.41 149.95 10.17L149.95 10.17L149.95 10.17Q150.05 9.92 150.07 9.57L150.07 9.57L150.07 9.57Q150.08 9.23 150.08 8.75L150.08 8.75L150.08 8.75Q150.08 8.31 150.07 7.98L150.07 7.98L150.07 7.98Q150.05 7.66 149.95 7.44L149.95 7.44L149.95 7.44Q149.85 7.23 149.64 7.10L149.64 7.10L149.64 7.10Q149.43 6.97 149.04 6.89L149.04 6.89L149.04 6.89Q148.65 6.82 148.05 6.80L148.05 6.80L148.05 6.80Q147.45 6.78 146.58 6.78L146.58 6.78L140.90 6.78ZM160.58 10.88L159.49 10.88L159.49 10.88Q159.49 10.38 159.42 10.06L159.42 10.06L159.42 10.06Q159.35 9.73 159.08 9.54L159.08 9.54L159.08 9.54Q158.81 9.34 158.29 9.27L158.29 9.27L158.29 9.27Q157.77 9.19 156.86 9.19L156.86 9.19L156.86 9.19Q155.98 9.19 155.43 9.34L155.43 9.34L155.43 9.34Q154.88 9.50 154.56 9.78L154.56 9.78L154.56 9.78Q154.25 10.06 154.13 10.45L154.13 10.45L154.13 10.45Q154.02 10.83 154.02 11.31L154.02 11.31L154.02 16.19L152.71 16.19L152.71 8.31L154.02 8.31L154.02 9.56L154.02 9.56Q154.09 9.35 154.27 9.10L154.27 9.10L154.27 9.10Q154.46 8.84 154.83 8.62L154.83 8.62L154.83 8.62Q155.21 8.39 155.81 8.24L155.81 8.24L155.81 8.24Q156.41 8.09 157.30 8.09L157.30 8.09L157.30 8.09Q158.33 8.09 158.97 8.27L158.97 8.27L158.97 8.27Q159.61 8.46 159.97 8.81L159.97 8.81L159.97 8.81Q160.33 9.16 160.46 9.68L160.46 9.68L160.46 9.68Q160.58 10.20 160.58 10.88L160.58 10.88ZM161.24 12.20L161.24 12.20L161.24 12.20Q161.24 10.99 161.50 10.19L161.50 10.19L161.50 10.19Q161.76 9.40 162.33 8.93L162.33 8.93L162.33 8.93Q162.91 8.47 163.82 8.28L163.82 8.28L163.82 8.28Q164.74 8.09 166.05 8.09L166.05 8.09L166.05 8.09Q167.36 8.09 168.28 8.28L168.28 8.28L168.28 8.28Q169.20 8.47 169.77 8.93L169.77 8.93L169.77 8.93Q170.34 9.40 170.60 10.19L170.60 10.19L170.60 10.19Q170.86 10.99 170.86 12.20L170.86 12.20L170.86 12.20Q170.86 13.41 170.60 14.21L170.60 14.21L170.60 14.21Q170.34 15.00 169.77 15.48L169.77 15.48L169.77 15.48Q169.20 15.95 168.28 16.14L168.28 16.14L168.28 16.14Q167.36 16.34 166.05 16.34L166.05 16.34L166.05 16.34Q164.74 16.34 163.82 16.14L163.82 16.14L163.82 16.14Q162.91 15.95 162.33 15.48L162.33 15.48L162.33 15.48Q161.76 15.00 161.50 14.21L161.50 14.21L161.50 14.21Q161.24 13.41 161.24 12.20ZM162.55 12.20L162.55 12.20L162.55 12.20Q162.55 12.85 162.60 13.34L162.60 13.34L162.60 13.34Q162.65 13.82 162.78 14.17L162.78 14.17L162.78 14.17Q162.91 14.52 163.15 14.74L163.15 14.74L163.15 14.74Q163.39 14.96 163.78 15.09L163.78 15.09L163.78 15.09Q164.17 15.22 164.73 15.26L164.73 15.26L164.73 15.26Q165.29 15.31 166.05 15.31L166.05 15.31L166.05 15.31Q166.71 15.31 167.22 15.28L167.22 15.28L167.22 15.28Q167.74 15.25 168.13 15.14L168.13 15.14L168.13 15.14Q168.51 15.03 168.79 14.83L168.79 14.83L168.79 14.83Q169.06 14.63 169.23 14.28L169.23 14.28L169.23 14.28Q169.39 13.93 169.47 13.42L169.47 13.42L169.47 13.42Q169.55 12.91 169.55 12.20L169.55 12.20L169.55 12.20Q169.55 11.49 169.47 11.00L169.47 11.00L169.47 11.00Q169.39 10.50 169.23 10.17L169.23 10.17L169.23 10.17Q169.06 9.83 168.79 9.64L168.79 9.64L168.79 9.64Q168.51 9.44 168.13 9.34L168.13 9.34L168.13 9.34Q167.74 9.24 167.22 9.21L167.22 9.21L167.22 9.21Q166.71 9.19 166.05 9.19L166.05 9.19L166.05 9.19Q165.40 9.19 164.88 9.21L164.88 9.21L164.88 9.21Q164.36 9.24 163.98 9.34L163.98 9.34L163.98 9.34Q163.59 9.44 163.32 9.64L163.32 9.64L163.32 9.64Q163.04 9.83 162.88 10.17L162.88 10.17L162.88 10.17Q162.71 10.50 162.63 11.00L162.63 11.00L162.63 11.00Q162.55 11.49 162.55 12.20Z"></path></g><defs data-v-fde0c5aa=""><linearGradient data-v-fde0c5aa="" gradientTransform="rotate(25)" id="69112851-b925-46b5-88f7-24bd4eb3f0eb" x1="0%" y1="0%" x2="100%" y2="0%"><stop data-v-fde0c5aa="" offset="0%" stop-color="#3C1143" stop-opacity="1"></stop><stop data-v-fde0c5aa="" offset="100%" stop-color="#C25178" stop-opacity="1"></stop></linearGradient></defs><g data-v-fde0c5aa="" id="88aa6d7b-e5f0-4510-a333-de5df2804b29" stroke="none" fill="url(#69112851-b925-46b5-88f7-24bd4eb3f0eb)" transform="matrix(0.3493253293899679,0,0,0.3493253293899679,137.91412385637818,115.04270792860324)"><g clip-rule="evenodd"><path d="M17.084 2.356c.053.006.976.369 1.104.663.177.405.144 1.758.221 2.578 2.323 24.724 4.529 48.322 6.922 73.049.129 1.336.759 4.242.294 4.934-.295.438-3.026 1.212-3.977.662-.648-.374-.864-2.481-1.104-3.534a506.255 506.255 0 0 1-5.081-24.963c-.058-.328-.199-1.771-.368-1.915-.491-.416-1.515 1.252-1.62 1.547-.789 2.209-1.434 5.528-1.988 7.879-2.37 10.048-4.48 19.13-6.848 29.234-.253 1.081-.676 1.955-.294 2.798.636 1.403 4.122 1.039 6.48.957 6.589-.228 11.766-.285 18.188-.589 1.389-.065 3.082-.372 3.535.074.426.419.424 1.796-.074 2.135-.593.404-2.602.147-3.608.147-6.346 0-11.939.147-18.336.147-2.648 0-7.259.749-8.174-1.179-.634-1.335.208-3.981.589-5.596a2913.665 2913.665 0 0 1 7.732-31.959c.73-2.94 1.064-5.448 3.093-6.849.408-.281.97-.464 1.031-.662.105-.345-.398-1.951-.516-2.725-.974-6.403-1.187-14.074-.884-21.502.147-3.585.055-8.748.221-12.519.078-1.762.074-3.911.074-6.407 0-1.647-.241-5.138.368-5.891.375-.461 2.057-.629 3.02-.514zm.81 24.301c-.378.371.085 2.658.147 3.387.639 7.53 1.272 14.987 1.915 22.46.008.093.1 1.463.368 1.546.144.045.526-.207.589-.368.054-.139-.058-.702-.074-.884-.737-8.452-1.434-16.077-2.356-24.447-.082-.746-.1-1.76-.442-1.694-.027.005-.128-.018-.147 0zm3.682 32.548c.139-.307-.477-3.132-.589-3.461-.033-.096-.506.129-.516.146-.101.2.104.718.147 1.031.122.874.213 1.673.368 2.577.101-.091.53-.161.59-.293zM54.787 90.942c4.725-.511 10.577 1.015 12.003 4.565.057.141.492 2.141.147 2.431-.21.176-2.023 0-2.578 0H48.895c-.648 0-2.353.162-2.577 0-.306-.221-.186-2.155.147-2.356.454-.274 3.435 0 4.124 0 .698 0 3.44.314 3.977-.074.35-.254.221-1.398.221-2.209v-2.357z"></path><path d="M53.682 94.624h-6.628c.996-1.813 4.029-3.052 6.407-3.534.485-.099.294 1.218.294 1.768 0 .715.056 1.315-.073 1.766z"></path></g></g><!----></svg>